# xmcd
# Copyright (C) 1995-1998 Ti Kan
#
# Track frame offsets:
#       150
#       14485
#       27385
#       39487
#       52625
#       65122
#       78954
#       91762
#       104860
#       118687
#       132687
#
# Disc length: 1922 seconds
#
# Revision: 2
# Processed by: cddbd v1.4PL0 Copyright (c) Steve Scherf et al.
# Submitted via: CD-Transfer v1.0
#
DISCID=9407800b
DTITLE=Morocco - Indigo
DYEAR=2002
DGENRE=
TTITLE0=She Makes Love...
TTITLE1=She Speaks Out Of My Heart
TTITLE2=Breathles and Gazing
TTITLE3=Vain
TTITLE4=I Always Will
TTITLE5=Fireworks Tonight On T.v.
TTITLE6=Sacriface Me
TTITLE7=Do You Hear Me?
TTITLE8=Where We Stand
TTITLE9=Already Now (Dying Away)
TTITLE10=Undress Me
EXTD=
EXTT0=
EXTT1=
EXTT2=
EXTT3=
EXTT4=
EXTT5=
EXTT6=
EXTT7=
EXTT8=
EXTT9=
EXTT10=
PLAYORDER=
